<svg id="Layer_2" data-name="Layer 2" xmlns="http://www.w3.org/2000/svg" viewBox="0 0 669.78 282"><defs><style>.cls-4{fill:#20325a}</style></defs><g id="Layer_1-2" data-name="Layer 1"><path class="cls-4" d="M383.71 105.06h1.91l-3.94 14H335.2v-1.86c2.62 0 4.49-.82 5.61-2.46 1.11-1.64 1.67-4.4 1.67-8.27V66.08c0-3.47-.52-5.88-1.56-7.25s-2.94-2.05-5.71-2.05v-1.86h22.97v1.86c-2.55 0-4.38.79-5.5 2.35-1.11 1.57-1.67 4.16-1.67 7.77v42.88c0 2.37.5 3.99 1.5 4.87 1 .88 2.93 1.31 5.77 1.31h12.74c3.94 0 6.69-.68 8.26-2.05 1.57-1.37 3.04-4.31 4.43-8.83ZM433.75 99.38c0 5.98-2.07 10.96-6.21 14.96-4.14 3.99-9.31 5.99-15.5 5.99s-11.37-2-15.5-5.99c-4.14-3.99-6.21-8.98-6.21-14.96s2.06-11.07 6.18-15.07c4.12-3.99 9.3-5.99 15.53-5.99s11.41 2 15.53 5.99c4.12 3.99 6.18 9.02 6.18 15.07Zm-8.26.02c0-5.66-1.2-10.22-3.61-13.69s-5.69-5.2-9.84-5.2-7.44 1.7-9.84 5.09c-2.41 3.4-3.61 8-3.61 13.8s1.19 10.24 3.58 13.64c2.39 3.39 5.68 5.09 9.87 5.09s7.48-1.71 9.87-5.15c2.39-3.43 3.58-7.96 3.58-13.58ZM454.26 78.32v8.59c3.65-3.17 6.48-5.39 8.5-6.67 2.02-1.28 3.71-1.91 5.06-1.91 2.52 0 4.94 1.04 7.27 3.12l-3.01 7.05c-4.23-2.33-7.37-3.5-9.41-3.5-2.26 0-5.07 1.61-8.42 4.81v21.81c0 2.19.46 3.67 1.37 4.44.91.77 2.66 1.15 5.25 1.15v1.86h-20.95v-1.86c2.77 0 4.58-.44 5.44-1.32.86-.88 1.29-2.98 1.29-6.31V87.91c0-2.74-.46-4.51-1.39-5.32-.93-.8-3.2-1.21-6.81-1.21v-1.86l13.89-1.2h1.91ZM517.26 48.73h1.86v62.67c0 2.19.47 3.7 1.42 4.54.95.84 2.68 1.26 5.2 1.26v1.86h-23.08c-7.11 0-12.73-1.95-16.87-5.85-4.14-3.9-6.21-8.82-6.21-14.77 0-5.58 1.81-10.33 5.44-14.25 3.63-3.92 8.01-5.88 13.15-5.88 4.12 0 8.57 1.61 13.34 4.81V58.78c0-2.66-.35-4.46-1.04-5.41-.69-.95-2.1-1.42-4.21-1.42h-2.24v-1.86l13.23-1.37Zm-5.75 62.51v-23.9c-1.53-2.08-3.33-3.71-5.39-4.89-2.06-1.18-4.11-1.78-6.15-1.78-3.61 0-6.53 1.49-8.75 4.46-2.22 2.97-3.34 6.85-3.34 11.62 0 6.16 1.52 11.12 4.57 14.88 3.04 3.76 7.3 5.63 12.77 5.63 2.22 0 3.83-.47 4.81-1.42.98-.95 1.48-2.48 1.48-4.59ZM368.45 151.98h1.8v15.04h-1.91c-.44-4.16-1.94-7.4-4.51-9.73s-5.81-3.5-9.71-3.5c-3.46 0-6.25.88-8.37 2.62-2.12 1.75-3.17 4.08-3.17 7 0 2.7.88 5.16 2.62 7.38 1.75 2.22 5.54 5.09 11.38 8.59 6.78 4.05 11.34 7.58 13.67 10.61 2.33 3.03 3.5 6.49 3.5 10.39 0 5.03-1.78 9.33-5.35 12.91-3.57 3.57-7.86 5.36-12.89 5.36-2.91 0-6.63-.8-11.14-2.41-1.86-.66-3.04-.98-3.55-.98-1.06 0-1.88.82-2.46 2.46h-1.91v-17.34h1.91c.04 4.78 1.59 8.61 4.67 11.48 3.08 2.88 6.67 4.32 10.78 4.32 3.89 0 7.01-1.04 9.36-3.12 2.35-2.08 3.52-4.85 3.52-8.32 0-2.59-.96-5.07-2.89-7.44-1.93-2.37-5.96-5.43-12.09-9.17-5-3.09-8.34-5.53-10.01-7.31-1.67-1.79-2.91-3.75-3.71-5.88s-1.2-4.48-1.2-7.03c0-4.92 1.61-8.92 4.84-11.98 3.23-3.06 7.43-4.6 12.61-4.6 2.84 0 5.94.57 9.3 1.7 1.57.51 2.66.77 3.28.77.51 0 .86-.11 1.04-.33.18-.22.38-.71.6-1.48ZM392.08 163.96h1.91v13.34h13.78v2.9h-13.78v25.54c0 2.66.62 4.71 1.86 6.15 1.24 1.44 3.01 2.16 5.3 2.16 2.7 0 5.16-1.28 7.38-3.83l1.26 1.48c-3.46 4.41-7.46 6.62-11.98 6.62-3.39 0-6.14-1.08-8.26-3.23s-3.17-4.92-3.17-8.31V180.2h-7.49v-1.91c5.47-2.73 9.86-7.51 13.18-14.33ZM424.45 218.32c-3.1 0-5.76-1.03-7.98-3.09-2.22-2.06-3.34-4.55-3.34-7.46s.96-5.06 2.87-6.86 5.81-3.53 11.68-5.17c3.68-1.02 6.16-1.89 7.44-2.62v-2.95c0-2.88-.8-5.2-2.41-6.97-1.6-1.77-3.76-2.65-6.45-2.65-2.44 0-4.61.77-6.51 2.3-1.9 1.53-3.23 3.61-3.99 6.23l-2.02-.55c.8-3.68 2.54-6.63 5.22-8.86 2.68-2.22 5.82-3.34 9.43-3.34 4.27 0 7.72 1.29 10.36 3.86 2.64 2.57 3.96 6.13 3.96 10.69v17.01c0 2.41.15 4.04.46 4.89.31.86.9 1.29 1.78 1.29.58 0 1.06-.25 1.42-.74.36-.49.78-1.52 1.26-3.09h1.91c-.18 2.48-.96 4.45-2.32 5.91-1.37 1.46-3.16 2.19-5.39 2.19-3.25 0-5.49-1.88-6.73-5.63-1.97 2.15-3.72 3.63-5.25 4.43-1.53.8-3.34 1.2-5.41 1.2Zm10.67-9.3v-13.45c-1.13.47-2.77 1.08-4.92 1.8-3.97 1.35-6.52 2.69-7.63 4.02-1.11 1.33-1.67 3.13-1.67 5.39 0 1.97.59 3.67 1.78 5.11 1.18 1.44 2.6 2.16 4.24 2.16 1.49 0 3.06-.48 4.7-1.45 1.64-.96 2.81-2.16 3.5-3.58ZM467.16 176.32v8.26h.22a18.66 18.66 0 0 1 6.32-6.02c2.57-1.49 5.17-2.24 7.79-2.24 2.88 0 5.44.79 7.68 2.38s3.84 3.77 4.79 6.54c4.23-5.94 9.11-8.91 14.66-8.91 3.86 0 7.07 1.19 9.62 3.58 2.55 2.38 3.83 5.65 3.83 9.8v19.93c0 2.15.47 3.6 1.41 4.34.94.75 2.68 1.12 5.21 1.12v1.97h-21v-1.97c2.88 0 4.72-.46 5.52-1.39.8-.93 1.2-2.99 1.2-6.2v-18.78c0-2.55-.77-4.55-2.3-6.01-1.53-1.46-3.63-2.18-6.29-2.18-4.16 0-7.89 2.55-11.21 7.66v21.23c0 2.22.47 3.72 1.42 4.5.95.78 2.68 1.17 5.2 1.17v1.97h-20.84v-1.97c2.99 0 4.84-.47 5.55-1.42s1.07-3 1.07-6.17v-18.35c0-2.62-.78-4.71-2.35-6.28-1.57-1.56-3.59-2.35-6.07-2.35-2.15 0-4.26.69-6.32 2.08-2.06 1.39-3.76 3.25-5.11 5.58v21.56c0 2.04.49 3.46 1.48 4.26.98.8 2.73 1.2 5.25 1.2v1.86h-21.05v-1.97c2.92 0 4.77-.46 5.55-1.37.78-.91 1.18-2.59 1.18-5.03v-23.52c0-2.04-.43-3.52-1.29-4.43-.86-.91-2.27-1.37-4.24-1.37h-2.46v-1.86l13.67-1.2h1.91ZM546.84 176.32v6.67c2.52-2.44 4.81-4.16 6.88-5.17 2.06-1 4.37-1.5 6.93-1.5 5.15 0 9.42 1.96 12.82 5.88 3.4 3.92 5.1 8.85 5.1 14.79s-1.87 11.21-5.62 15.26c-3.74 4.05-8.45 6.07-14.11 6.07-3.91 0-7.91-1.57-12-4.7v26.09c0 2.7.46 4.47 1.39 5.33s2.67 1.29 5.22 1.29v1.86h-21.22v-1.86c2.73 0 4.58-.38 5.52-1.15.95-.77 1.42-2.23 1.42-4.38v-55.22c0-2.66-.4-4.36-1.2-5.09-.8-.73-2.72-1.1-5.74-1.1v-1.86l12.69-1.2h1.91Zm0 9.63v24.83c3.11 3.28 6.76 4.92 10.96 4.92 3.54 0 6.51-1.66 8.91-4.98 2.39-3.32 3.59-7.44 3.59-12.36 0-5.32-1.2-9.71-3.59-13.18-2.39-3.46-5.44-5.2-9.13-5.2s-7.31 1.99-10.74 5.96ZM624.33 206.89v2.9c-2.41 3.06-4.86 5.25-7.36 6.56-2.5 1.31-5.5 1.97-9 1.97-6.2 0-11.31-1.94-15.34-5.82-4.03-3.88-6.04-8.81-6.04-14.79s1.92-11.08 5.77-15.2c3.85-4.12 8.56-6.18 14.14-6.18 4.59 0 8.6 1.55 12.03 4.65 3.43 3.1 5.14 6.8 5.14 11.1v.82h-29.15v.55c0 4.38.67 8.18 2 11.4 1.33 3.23 3.27 5.75 5.82 7.57 2.55 1.82 5.21 2.73 7.98 2.73 2.59 0 4.8-.54 6.64-1.61 1.84-1.07 4.29-3.29 7.36-6.64Zm-29.8-15.91h21.6v-.77c0-3.54-1.01-6.34-3.04-8.42s-4.55-3.12-7.57-3.12c-3.21 0-5.79 1.09-7.74 3.28-1.95 2.19-3.04 5.2-3.25 9.02ZM669.78 206.89v2.9c-2.41 3.06-4.86 5.25-7.36 6.56-2.5 1.31-5.5 1.97-9 1.97-6.2 0-11.31-1.94-15.34-5.82-4.03-3.88-6.04-8.81-6.04-14.79s1.92-11.08 5.77-15.2c3.85-4.12 8.56-6.18 14.14-6.18 4.59 0 8.6 1.55 12.03 4.65 3.43 3.1 5.14 6.8 5.14 11.1v.82h-29.15v.55c0 4.38.67 8.18 2 11.4 1.33 3.23 3.27 5.75 5.82 7.57 2.55 1.82 5.21 2.73 7.98 2.73 2.59 0 4.8-.54 6.64-1.61 1.84-1.07 4.29-3.29 7.36-6.64Zm-29.81-15.91h21.6v-.77c0-3.54-1.01-6.34-3.04-8.42s-4.55-3.12-7.57-3.12c-3.21 0-5.79 1.09-7.74 3.28-1.95 2.19-3.04 5.2-3.25 9.02Z"/><path style="fill:none;stroke:#ba9672;stroke-miterlimit:10" d="M265.5 16.5v249h-249v-249h249"/><path style="fill:none;stroke:#ba9672;stroke-miterlimit:10;stroke-width:3px" d="M280.5 1.5H1.5v279h279V1.5z"/><path class="cls-4" d="M227.67 148.24h2.34v19.47h-2.48c-.57-5.38-2.51-9.58-5.84-12.6-3.33-3.02-7.52-4.53-12.57-4.53-4.48 0-8.1 1.13-10.83 3.4s-4.11 5.29-4.11 9.06c0 3.49 1.13 6.68 3.4 9.56 2.27 2.88 7.17 6.58 14.73 11.12 8.78 5.24 14.68 9.82 17.7 13.73 3.02 3.92 4.53 8.4 4.53 13.45 0 6.51-2.31 12.08-6.93 16.71-4.62 4.63-10.18 6.94-16.68 6.94-3.77 0-8.58-1.04-14.42-3.12-2.4-.85-3.94-1.27-4.59-1.27-1.37 0-2.43 1.06-3.18 3.19h-2.48v-22.44h2.48c.05 6.18 2.06 11.14 6.04 14.87 3.98 3.73 8.63 5.59 13.96 5.59 5.04 0 9.08-1.35 12.12-4.04 3.04-2.69 4.56-6.28 4.56-10.77 0-3.35-1.25-6.56-3.75-9.64-2.5-3.07-7.72-7.03-15.65-11.87-6.47-4-10.8-7.15-12.96-9.47-2.17-2.31-3.77-4.85-4.81-7.62-1.04-2.76-1.56-5.8-1.56-9.1 0-6.37 2.09-11.55 6.27-15.51 4.18-3.97 9.62-5.95 16.32-5.95 3.68 0 7.69.73 12.04 2.19 2.03.66 3.45.99 4.25.99.66 0 1.11-.14 1.34-.43s.5-.92.78-1.91ZM110.75 112.78h2.48l-5.1 18.12H47.95v-2.41c3.4 0 5.82-1.06 7.26-3.19 1.44-2.13 2.16-5.69 2.16-10.7V62.3c0-4.49-.67-7.62-2.02-9.39-1.34-1.77-3.81-2.66-7.4-2.66v-2.41h29.74v2.41c-3.3 0-5.68 1.02-7.12 3.04-1.44 2.03-2.16 5.38-2.16 10.05v55.51c0 3.07.65 5.17 1.95 6.3 1.3 1.13 3.79 1.7 7.47 1.7h16.5c5.1 0 8.66-.89 10.69-2.66 2.03-1.77 3.94-5.58 5.74-11.43Z"/><path d="M47.5 236.5a2.004 2.004 0 0 1-1.41-3.42l187-186.99c.78-.78 2.05-.78 2.83 0s.78 2.05 0 2.83L48.91 235.91c-.39.39-.9.59-1.41.59Z" style="fill:#ba9672"/></g></svg>